<?xml version="1.0" standalone="no"?>
<!DOCTYPE svg PUBLIC "-//W3C//DTD SVG 20010904//EN"
 "http://www.w3.org/TR/2001/REC-SVG-20010904/DTD/svg10.dtd">
<svg version="1.0" xmlns="http://www.w3.org/2000/svg"
 width="200.000000pt" height="200.000000pt" viewBox="0 0 200.000000 200.000000"
 preserveAspectRatio="xMidYMid meet">
<metadata>
Created by potrace 1.14, written by Peter Selinger 2001-2017
</metadata>
<g transform="translate(0.000000,200.000000) scale(0.100000,-0.100000)"
fill="#000000" stroke="none">
<path d="M1446 1860 c-14 -22 -26 -42 -26 -44 0 -2 -21 -40 -46 -83 -26 -43
-98 -168 -161 -277 l-114 -200 41 -40 41 -40 32 19 c54 32 572 397 579 408 10
16 -2 33 -74 111 -64 70 -209 186 -233 186 -7 0 -24 -18 -39 -40z"/>
<path d="M960 1816 c-6 -6 -10 -105 -10 -263 0 -242 1 -253 20 -263 11 -6 20
-8 20 -6 0 3 12 1 26 -5 43 -16 59 -3 94 74 19 39 58 124 88 187 98 208 95
197 69 215 -53 37 -285 83 -307 61z"/>
<path d="M789 1457 c-28 -10 -53 -25 -56 -33 -5 -13 45 -113 74 -145 13 -16
18 -16 65 -1 l50 16 -7 79 c-3 43 -9 85 -12 93 -7 18 -49 15 -114 -9z"/>
<path d="M1699 1435 c-30 -18 -77 -45 -105 -60 -99 -55 -239 -140 -245 -148
-3 -5 6 -45 22 -90 l27 -82 59 1 c55 0 160 8 283 20 30 3 71 7 91 8 65 5 66 7
38 136 -21 96 -78 234 -102 243 -7 3 -38 -10 -68 -28z"/>
<path d="M327 1277 c-35 -27 -83 -246 -58 -262 9 -5 205 -9 339 -6 46 1 53 10
67 84 l7 36 -84 39 c-45 22 -105 50 -133 62 -27 12 -66 31 -86 41 -29 14 -40
16 -52 6z"/>
<path d="M1313 975 c-14 -11 -26 -51 -27 -98 -1 -26 8 -32 204 -123 113 -53
225 -105 250 -116 25 -11 67 -31 94 -44 28 -13 58 -22 67 -19 43 14 123 379
88 401 -20 13 -658 12 -676 -1z"/>
<path d="M488 965 c-1 -1 -40 -5 -85 -9 -44 -3 -134 -10 -200 -16 -65 -6 -132
-12 -148 -13 -17 -2 -37 -7 -44 -11 -38 -24 70 -376 116 -376 18 0 379 203
421 237 22 17 22 19 8 58 -9 22 -20 59 -26 81 -9 36 -30 60 -42 49z"/>
<path d="M1166 810 c-20 -22 -36 -46 -36 -53 0 -6 29 -51 63 -99 34 -48 84
-119 111 -157 26 -38 55 -72 63 -75 27 -11 200 175 198 214 0 15 -326 210
-350 210 -7 0 -29 -18 -49 -40z"/>
<path d="M1037 726 l-59 -19 8 -101 c4 -56 8 -112 9 -126 3 -46 16 -71 33 -66
9 2 34 7 56 11 45 8 147 51 157 67 6 10 -7 40 -46 106 -5 9 -25 42 -43 73 -17
31 -38 61 -45 66 -7 5 -34 2 -70 -11z"/>
<path d="M781 643 c-59 -122 -59 -134 4 -154 71 -24 135 -31 152 -18 14 13 19
204 5 226 -4 6 -19 14 -32 17 -14 2 -39 8 -56 11 -30 7 -31 6 -73 -82z"/>
<path d="M324 567 c-155 -108 -220 -159 -222 -174 -7 -46 279 -304 319 -288
14 5 271 442 277 471 4 15 -125 143 -144 144 -6 0 -110 -69 -230 -153z"/>
</g>
</svg>
